<?xml version="1.0" encoding="UTF-8"?>
<!DOCTYPE svg PUBLIC "-//W3C//DTD SVG 1.1//EN" "http://www.w3.org/Graphics/SVG/1.1/DTD/svg11.dtd">
<!-- Creator: CorelDRAW 2021.5 -->
<svg xmlns="http://www.w3.org/2000/svg" xml:space="preserve" width="1.66667in" height="1.66667in" version="1.1" style="shape-rendering:geometricPrecision; text-rendering:geometricPrecision; image-rendering:optimizeQuality; fill-rule:evenodd; clip-rule:evenodd"
viewBox="0 0 1666.67 1666.67"
 xmlns:xlink="http://www.w3.org/1999/xlink"
 xmlns:xodm="http://www.corel.com/coreldraw/odm/2003">
 <defs>
  <style type="text/css">
   <![CDATA[
    .fil0 {fill:#375523;fill-rule:nonzero}
   ]]>
  </style>
 </defs>
 <g id="Layer_x0020_1">
  <metadata id="CorelCorpID_0Corel-Layer"/>
  <g id="_2786405423728">
   <path class="fil0" d="M836.81 32.46c-52.31,0.28 -98.19,4.01 -143.74,11.96 -72.67,12.69 -142.41,34.54 -208.63,66.92 -128.64,62.92 -233.69,153.11 -314.03,271.24 -84.13,123.71 -129.47,260.51 -136.33,409.55 -3.39,73.43 3.39,146.22 19.88,218 38.28,166.58 121.59,306.89 249.17,421.22 61.15,54.79 129.35,98.98 204.48,132.72 84.62,37.99 173.22,60.17 265.67,67.09 46.08,3.45 92.19,2.95 138.29,-1.45 50.62,-4.83 100.27,-14.35 148.95,-28.67 104.43,-30.7 198.35,-80.97 282.11,-150.15 86.13,-71.11 153.5,-157.15 204.53,-255.72 48.09,-92.91 75.44,-191.85 83.72,-296.19 5.2,-65.37 4.07,-130.33 -5.88,-195.17 -10.85,-70.68 -31.97,-138.34 -61.02,-203.48 -36.51,-81.82 -87.89,-153.75 -149.41,-218.99 -73.47,-77.91 -158.84,-138.89 -257.25,-181.6 -104.08,-45.17 -213.24,-66.54 -320.53,-67.28zm829.84 795.11c0.44,100.63 -15.48,198.61 -50.62,293.04 -47.82,128.46 -123.24,238.63 -224.54,331.55 -84.55,77.57 -181.25,134.66 -290.09,171.25 -61.4,20.65 -124.37,34.26 -189.2,39.81 -54.58,4.68 -109.03,4.76 -163.33,-0.84 -94.91,-9.78 -185.56,-35.55 -271.88,-76.17 -69.04,-32.5 -132.08,-74.06 -189.37,-124.17 -90.24,-78.96 -161.22,-172.26 -211.42,-281.08 -34.03,-73.75 -56.13,-150.95 -67.85,-231.04 -8.54,-58.33 -10.08,-117.05 -6.67,-175.96 5.63,-96.82 28.49,-189.39 67.25,-278.19 35.3,-80.85 82.49,-154.17 141.94,-219.65 48.8,-53.75 103.12,-101.2 163.92,-141.09 84.52,-55.46 175.93,-94.98 275.17,-116.43 78.35,-16.93 157.41,-21.44 237.28,-17 83.78,4.65 164.73,22.47 243.17,51.28 92.19,33.87 175.23,83.38 248.94,148.11 69.47,60.98 129.22,130.03 175.91,209.87 47.71,81.62 80.24,168.78 97.71,261.61 9.65,51.31 13.43,103.02 13.67,155.09z"/>
   <path class="fil0" d="M1190.35 713.36c3.52,-22.12 6.83,-42.93 10.13,-63.74 -8.87,23.35 -13.89,55.52 -10.13,63.74zm-520.6 357.31l1.1 3.16c109.46,-19.13 218.87,-19.83 330.67,0.87 -2.52,-3.14 -3.18,-4.04 -3.9,-4.86 -52.11,-58.54 -104.26,-117.04 -156.29,-175.63 -5.51,-6.22 -9.43,-5.62 -14.84,0.46 -45.16,50.67 -90.61,101.08 -135.9,151.65 -7.12,7.95 -13.9,16.22 -20.84,24.35zm-252.43 130.31c94.35,101.29 205.67,164.97 341.84,183.06 52.95,7.04 105.82,7.04 158.36,-1.21 128.84,-20.22 236.66,-80.3 326.65,-173.24 7.06,-7.3 7.06,-9.56 -2.02,-14.19 -26.15,-13.33 -51.95,-27.57 -78.95,-39 -81.89,-34.67 -167.92,-51.96 -256.55,-57.91 -74.74,-5.02 -148.99,-2.22 -223.06,9.16 -72,11.06 -141.19,31.19 -207.21,61.62 -19.83,9.13 -38.54,20.62 -59.06,31.72zm829.53 -306.88c-33.95,26.74 -57.44,60.83 -66.26,103.33 -4.16,20.05 -4.73,40.91 -5.82,61.45 -0.91,17.53 -0.31,35.13 -0.21,52.69 0.05,8.11 2.78,13.51 11.42,17.43 27.27,12.42 54.01,26.04 80.7,39.69 6.64,3.39 10.31,3.2 15.11,-3.17 66.73,-88.46 102.81,-188.31 109.96,-298.11 5.44,-83.36 -7.25,-164.59 -38.48,-242.39 -40.89,-101.96 -106.94,-184.83 -197.23,-247.64 -90.99,-63.28 -192.29,-97.26 -303.95,-100.15 -73.94,-1.91 -145.7,8 -214.95,34.09 -92.36,34.8 -170.56,90.06 -233.34,165.53 -72.09,86.67 -113.89,186.5 -124.94,298.87 -6.6,67.19 -1.24,133.3 15.69,198.52 4.25,16.39 10.04,32.38 15.29,49.05 41.26,-89.87 81.88,-178.31 122.87,-267.56 -18.61,-6.72 -35.6,-12.84 -54.77,-19.76 53.87,-39.17 106.24,-77.23 160.44,-116.63 6.07,63.41 11.86,124.01 17.78,185.95 -15.97,-6.87 -30.33,-13.04 -45.04,-19.38 -1.68,3.41 -3.06,6.11 -4.38,8.85 -21.67,45.26 -43.3,90.57 -65.04,135.81 -28.41,59.14 -56.97,118.22 -85.3,177.41 -1.34,2.79 -2.67,7.27 -1.37,9.35 11.57,18.43 23.74,36.47 37.24,56.95 47.93,-105.89 94.81,-209.15 166.94,-300.99 3.07,25.1 4.94,48.01 9.02,70.53 2.29,12.63 -1.25,22.62 -6.74,33.19 -18.3,35.29 -36.25,70.74 -54.21,106.19 -7.12,14.06 -13.87,28.3 -20.59,42.04 36.57,-11.96 72.32,-23.55 107.95,-35.5 2.74,-0.93 5.36,-4.02 6.75,-6.74 5.34,-10.41 10.07,-21.13 15.15,-31.67 35.47,-73.48 70.37,-147.21 97.94,-224.09 7.07,-19.69 9.98,-39.86 6.75,-60.71 -4.28,-27.7 -18,-51.16 -35.14,-72.36 -38.22,-47.26 -78.09,-93.21 -115.94,-140.74 -21.84,-27.44 -41.22,-56.82 -61.2,-85.69 -1.98,-2.85 -0.35,-8.17 -0.4,-12.34 3.85,1.13 8.53,1.22 11.4,3.53 63.96,51.66 134.43,92.33 210.74,123.02 58.11,23.37 117.41,28.5 178,9.91 75.86,-23.3 142.71,-63.55 206.89,-108.76 11.61,-8.17 22.23,-17.74 33.72,-26.09 2.3,-1.67 6.54,-0.69 9.89,-0.94 -0.11,3.02 0.79,6.57 -0.49,8.98 -4.81,8.94 -9.51,18.16 -15.72,26.12 -35.81,46.01 -71.95,91.74 -108.15,137.43 -21.64,27.31 -44.73,53.53 -65.1,81.72 -23.19,32.07 -31.71,68.19 -18.47,106.73 9.99,29.08 20.56,58.07 33,86.17 25.05,56.6 52.02,112.36 77.06,168.96 5.53,12.51 12.37,19.56 25.7,22.59 17.92,4.09 35.42,9.99 53.52,15.23 0.83,-3.87 1.78,-7.11 2.2,-10.43 4.21,-32.88 7.99,-65.8 12.57,-98.63 4.39,-31.54 4.94,-62.08 -17.77,-88.08 -11.05,-12.66 -22.2,-25.22 -33.31,-37.84 -0.71,0.64 -1.41,1.28 -2.13,1.91 7.24,7.96 14.78,15.65 21.63,23.91 6.96,8.42 13.24,17.41 20.73,27.33 -6.98,-0.63 -11.89,-0.96 -16.76,-1.53 -20.3,-2.35 -39.29,-8.46 -51.88,-25.28 -7.81,-10.45 -14.11,-22.48 -18.8,-34.67 -7.21,-18.74 -12.46,-38.22 -19.12,-59.27 12.33,1.19 21.9,1.5 31.22,3.17 8.45,1.51 16.81,4 24.9,6.9 39.96,14.37 61.86,51.2 57.22,92.89 -0.86,7.7 4.39,16.07 6.83,24.14 0.93,-0.22 1.85,-0.46 2.79,-0.69 0.79,-3.19 2.11,-6.36 2.25,-9.59 1.56,-34.44 2.97,-68.9 4.22,-103.36 0.12,-3.26 -0.48,-6.94 -2,-9.77 -9.1,-17.06 -18.43,-33.99 -28.02,-50.78 -2.25,-3.96 -5.68,-7.28 -8.71,-10.76 -2.76,-3.14 -5.72,-6.11 -8.59,-9.15 -0.11,0.22 -0.24,0.45 -0.35,0.68 12.37,18.51 24.75,37.04 38.18,57.13 -52.98,-6.66 -78.06,-27.8 -89.95,-73.78 -1,-3.88 -1.94,-7.8 -2.43,-11.76 -1.81,-14.74 -3.4,-29.51 -5.35,-46.66 15.83,4.33 29.22,6.95 41.83,11.66 40.63,15.21 65.31,42.15 63.41,88.04 -0.3,7.22 1.68,14.54 2.6,21.8 0.83,-0.03 1.66,-0.04 2.48,-0.06 3.83,-23.19 7.31,-46.44 11.74,-69.52 1.22,-6.46 0.09,-10.76 -3.9,-15.8 -23.72,-30.04 -29.28,-62.91 -14.46,-98.64 9.8,-23.61 24.02,-44.39 41.19,-63.24 3.63,-3.98 7.87,-7.43 11.87,-11.17 24.1,31.67 34.18,90.02 23.3,126.98 -6.8,23.11 -22.07,39.43 -40.16,54.02 -2.86,2.31 -6.26,5.83 -6.59,9.09 -2.37,22.95 -4.28,45.96 -5.69,68.98 -0.49,7.96 0.8,16.05 1.28,24.08 6.59,-21.58 9.19,-43.78 16.61,-64.26 7.81,-21.53 25.81,-35.63 46.68,-45.42 20.57,-9.64 42.25,-14.64 65.97,-16.19 -4.59,35.99 -13.72,69.27 -36.43,97.13 -20.08,24.62 -50.04,29.71 -78.56,37.18 -0.8,-0.76 -1.59,-1.51 -2.39,-2.25 16.35,-20.31 32.69,-40.6 50.37,-62.58 -18.43,16.24 -33.43,32.62 -45.84,51.38 -10.54,15.96 -18.04,33.26 -19.51,52.19 -1.86,24.22 -1.91,48.61 -2.63,72.92 -0.2,6.87 -0.02,13.74 -0.02,20.61 1.44,0.25 2.88,0.5 4.32,0.76 2.41,-7.76 5.7,-15.38 6.94,-23.33 1.38,-8.76 -0.5,-18.09 1.36,-26.68 11.5,-53.16 66.78,-73.89 115.15,-69.81 -6.8,21.85 -12.7,43.46 -20.3,64.45 -7.37,20.36 -20.22,37.17 -41.38,44.94 -15.74,5.78 -32.27,9.5 -48.44,14.14 -0.87,-1.17 -1.75,-2.33 -2.63,-3.48 16.26,-20.06 32.54,-40.13 48.58,-59.92zm-412.49 -651.21c331.48,1.07 594.56,267.12 592.13,593.75 -2.5,335.34 -280.87,585.19 -591.64,584.36 -316.38,-0.84 -597.55,-249.75 -592.57,-601.75 4.44,-313.68 261.55,-576.1 592.08,-576.36z"/>
   <path class="fil0" d="M1251.35 1370.1c15.94,17.49 31.87,35 48.5,53.26 -6.28,5.31 -12.06,10.22 -18.26,15.47 -24.47,-26.97 -48.48,-53.42 -73.2,-80.68 8.75,-6.75 16.99,-13.52 25.78,-19.49 1.65,-1.13 5.79,0.33 8.27,1.58 18.41,9.35 36.69,18.95 56.98,29.5 -3.99,-10.73 -7.38,-19.73 -10.7,-28.76 -3.91,-10.69 -7.47,-21.5 -11.74,-32.03 -2.01,-4.96 -1.9,-8.52 2.4,-12.14 5.4,-4.54 10.37,-9.56 16.4,-15.22 24.12,26.68 47.79,52.86 72.08,79.72 -6.07,5.13 -11.88,10.03 -18.49,15.61 -14.38,-16.85 -29.89,-35.05 -45.4,-53.23 -0.39,0.15 -0.78,0.3 -1.17,0.44 4.07,10.83 8.07,21.68 12.2,32.48 4.39,11.48 8.69,23 13.45,34.33 1.72,4.08 3.2,7.95 -1.69,10.04 -3.06,1.31 -7.64,2.16 -10.32,0.83 -20.21,-10.04 -40.11,-20.7 -60.11,-31.14 -1.28,-0.67 -2.62,-1.25 -3.92,-1.86 -0.35,0.44 -0.71,0.87 -1.07,1.31z"/>
   <path class="fil0" d="M736.99 202.45c-8.45,0.68 -15.78,1.28 -24.42,1.97 -3.53,-37.03 -7.03,-73.81 -10.51,-110.34 1.2,-0.6 1.72,-0.94 2.28,-1.13 18.98,-6.3 31.28,1.28 40.37,17.93 4.54,8.3 11.38,15.33 17.1,23 5.49,7.35 10.85,14.78 17.96,24.48 -2.11,-25.9 -4,-49.13 -5.99,-73.52 8.5,-0.61 16,-1.15 24.46,-1.77 2.97,37.27 5.89,73.67 8.88,111.3 -8.4,0.78 -16.61,2.17 -24.76,1.95 -2.74,-0.06 -5.94,-3.77 -7.99,-6.51 -13.49,-18.02 -26.72,-36.23 -40.05,-54.36 -1.02,-1.41 -2.17,-2.72 -4.8,-5.98 2.6,25.44 4.96,48.46 7.47,72.98z"/>
   <path class="fil0" d="M271.85 525.2c-3.59,7.99 -5.78,14.91 -9.67,20.69 -1.91,2.84 -6.88,4.79 -10.64,5.11 -19.74,1.68 -39.54,2.66 -59.32,4.05 -4.45,0.31 -8.85,1.3 -15.85,2.37 22.87,10.85 43.4,20.59 64.69,30.68 -3.82,7.79 -7.37,15.06 -11,22.47 -32.89,-15.77 -65.14,-31.24 -97.88,-46.95 2.57,-7.12 4.49,-13.92 7.54,-20.18 1.14,-2.35 4.74,-4.56 7.47,-4.91 22.08,-2.85 44.22,-5.24 66.34,-7.83 2.67,-0.31 5.29,-1.02 10,-1.96 -22.18,-9.88 -42.43,-18.9 -63.42,-28.25 3.56,-6.82 6.91,-13.24 10.66,-20.44 33.79,15.09 66.96,29.92 101.08,45.17z"/>
   <path class="fil0" d="M1451.85 1184.68c-19.12,-10.52 -38.22,-21.04 -57.26,-31.5 0.13,-0.92 0,-1.68 0.31,-2.07 13.83,-17.72 13.8,-17.65 33.3,-6.2 23.9,14.05 47.88,27.95 72.42,42.26 -4.55,6.81 -8.41,13.47 -13.25,19.34 -1.7,2.06 -5.77,2.98 -8.76,3.02 -23.81,0.23 -47.63,0.12 -73.18,0.12 19.62,12.58 38.09,24.41 57.38,36.78 -5.32,6.89 -10.44,13.52 -15.78,20.43 -29.73,-19.37 -58.87,-38.35 -88.48,-57.67 3.86,-6.77 6.96,-13.13 11.01,-18.82 1.31,-1.83 5.11,-2.65 7.79,-2.69 21.69,-0.29 43.37,-0.28 65.07,-0.4 2.96,-0.01 5.9,-0.25 8.86,-0.39 0.19,-0.74 0.38,-1.47 0.57,-2.21z"/>
   <path class="fil0" d="M1327.67 322.39c-17.15,16.64 -32.98,32.01 -49.42,47.97 -5.76,-5 -11.55,-10 -18.22,-15.79 26.58,-24.87 52.73,-49.35 79.53,-74.42 5.54,5.67 10.95,10.33 15.12,15.91 1.77,2.37 1.82,6.89 1.11,10.09 -5.05,23.09 -10.5,46.09 -15.78,69.12 -0.17,0.81 0.11,1.7 0.48,6 16.86,-18.57 32.11,-35.38 47.82,-52.69 7.65,7.09 12.95,12 19.42,18 -26.76,24.57 -53.44,49.05 -79.77,73.22 -1.31,-0.22 -1.96,-0.16 -2.4,-0.44 -15.77,-9.76 -17.29,-22.67 -11.62,-39.6 6.07,-18.11 9.07,-37.23 13.73,-57.37z"/>
   <path class="fil0" d="M983.35 1498.55c5.6,22.85 10.93,44.52 16.46,67.13 -7.7,1.52 -15.02,2.95 -23.52,4.62 -8.17,-35.65 -16.21,-70.75 -24.17,-105.48 1.28,-0.93 1.71,-1.39 2.24,-1.63 15.42,-6.86 27.11,-3.8 38.04,10.07 11.13,14.12 25.07,26.05 37.77,38.93 0.71,-0.37 1.42,-0.73 2.11,-1.09 -5.33,-20.69 -10.67,-41.37 -16.27,-63.08 7.97,-2.18 15.16,-4.15 23.05,-6.32 8.84,35.79 17.35,70.24 25.99,105.22 -6.97,1.85 -12.8,3.91 -18.8,4.75 -2.91,0.41 -7.02,-0.54 -9.11,-2.45 -17.91,-16.49 -35.48,-33.32 -53.79,-50.66z"/>
   <path class="fil0" d="M348.32 374.01c17.06,-0.15 28.57,-14.64 24.18,-31.15 -3.91,-14.72 -13.4,-25.6 -26.87,-32.39 -14.98,-7.55 -34.75,3.28 -36.78,19.45 -2.5,20.07 19.17,44.27 39.48,44.08zm-63.59 -36.18c-0.09,-28.36 26.63,-54.73 55.39,-54.68 30.55,0.06 58.18,29.72 58.3,62.57 0.09,27.17 -27.69,54.13 -55.53,53.86 -30.02,-0.28 -58.07,-30.06 -58.16,-61.75z"/>
   <path class="fil0" d="M570 181.29c6.08,16.17 11.37,31.24 17.46,45.97 3.09,7.49 3.17,12.72 -5.67,15.44 -1.98,0.62 -3.76,1.93 -6.54,3.39 -1.84,-3.74 -3.52,-7.15 -5.19,-10.54 -0.57,0.24 -1.49,0.38 -1.56,0.68 -4.59,23.71 -25.65,36.23 -52.62,30.15 -23.63,-5.31 -38.02,-21.37 -44.63,-43.71 -5.98,-20.19 -0.93,-38.87 14.81,-53.09 17.59,-15.92 38.33,-20.83 61.05,-11.58 4.54,1.84 8.28,5.63 14.71,10.15 -12.15,4.11 -18.09,13.86 -31.57,8.43 -10.44,-4.21 -21.86,0.62 -29.86,10.05 -7.7,9.11 -7.38,19.37 -3.65,29.56 3.78,10.29 10.07,18.93 20.13,24.45 10.35,5.7 21.2,4.9 31.11,-2.73 7.49,-5.77 9.64,-14.91 6.01,-27.49 -7.91,3.26 -15.76,6.51 -24.38,10.07 -2.2,-5.28 -4.3,-10.26 -6.7,-16 15.65,-7.72 30.99,-15.28 47.07,-23.21z"/>
   <path class="fil0" d="M395.55 251.06c5.87,7.58 10.81,13.97 16.02,20.71 5.8,-4.52 10.61,-8.29 15.43,-12.06 6.19,-4.84 6.83,-10.55 2.47,-16.83 -4.72,-6.81 -11.26,-8.32 -18.39,-3.73 -5.11,3.29 -9.7,7.39 -15.53,11.91zm-33.24 -1.68c15.57,-10.99 30.13,-21.91 45.35,-31.83 12.56,-8.18 27.69,-6.74 37.95,2.26 11.1,9.74 13.29,21.59 6.85,36.89 -0.45,1.08 -0.7,2.25 -1.41,4.54 16.48,8.39 32.84,16.72 50.02,25.46 -7.76,5.94 -14.59,11.61 -21.96,16.5 -1.79,1.19 -5.85,0.72 -7.96,-0.51 -8.28,-4.8 -16.24,-10.17 -24.23,-15.44 -10.99,-7.22 -10.95,-7.27 -21.84,2.58 8.35,10.49 16.72,21.03 25.66,32.28 -6.93,5.04 -13.53,9.84 -21.3,15.5 -22.28,-29.29 -44.24,-58.16 -67.12,-88.23z"/>
   <path class="fil0" d="M1483.73 529.08c-13.8,0.04 -26.87,6.31 -35.32,17.06 -6.39,8.12 -7.83,17.03 -4.15,26.73 3.87,10.18 11.82,14.74 22.17,15.11 13.17,0.46 24.95,-3.86 34.66,-12.68 8.23,-7.49 10.54,-20.33 6.24,-30.5 -4.5,-10.67 -12.13,-15.73 -23.6,-15.71zm-65.59 31.24c-1.86,-34.15 37.98,-57.65 64.35,-57.43 24.19,0.21 49.94,23.26 50.74,57.09 0.68,28.96 -29.44,53.29 -64.53,53.24 -28.39,-0.06 -50.61,-23.29 -50.57,-52.9z"/>
   <path class="fil0" d="M154.28 728.83c17.3,-1.89 29.43,-11.32 31.83,-26.11 1.9,-11.77 -6.46,-23.57 -21.87,-27.97 -8.39,-2.4 -17.64,-3.02 -26.41,-2.64 -10.44,0.45 -19.17,9.42 -21.76,19.92 -2.56,10.37 1.21,22.12 10.8,27.09 8.52,4.41 18.23,6.56 27.42,9.71zm-2.91 24.39c-26.7,-0.34 -47.5,-12.74 -54.35,-33.74 -7.95,-24.39 -0.94,-63.05 32.84,-72.42 25.66,-7.11 70.93,5.91 77.35,38.35 6.22,31.41 -14.69,69.62 -55.84,67.81z"/>
   <path class="fil0" d="M1247.29 236.66c-17.41,-0.17 -33.85,17.37 -36.14,37.98 -1.15,10.23 2.21,18.22 10.54,23.92 8.54,5.83 17.96,7.08 27.2,1.97 13.52,-7.48 21.96,-18.81 23.25,-34.47 1.34,-16.26 -9.86,-29.26 -24.86,-29.39zm50.16 30.5c-0.17,32.9 -26,60.07 -56.94,59.87 -30.02,-0.2 -54.93,-24.67 -54.86,-53.89 0.09,-32.12 26.61,-59.34 57.75,-59.29 29.62,0.05 54.2,24.3 54.05,53.31z"/>
   <path class="fil0" d="M272.48 1207.78c-18.7,-0.26 -37.76,15.61 -38.19,31.8 -0.37,14.16 12.34,27.82 26.17,28.14 16.52,0.37 37.26,-18.76 37.51,-34.62 0.24,-14.98 -9.94,-25.1 -25.49,-25.31zm-10.37 85.24c-27.2,-0.2 -53.55,-27.74 -53.46,-55.88 0.07,-27.9 30.84,-55.58 61.33,-55.19 25.68,0.33 52.33,28.61 52.18,55.41 -0.15,27.41 -30.87,55.88 -60.04,55.67z"/>
   <path class="fil0" d="M1509.51 651.91c2.11,7.53 3.68,14.4 5.98,21.01 2.72,7.81 9.98,10.86 17.85,8.15 10.06,-3.48 12.42,-10.38 9.31,-25.13 -1.63,-7.72 -4.12,-12.3 -13.37,-8.78 -5.96,2.26 -12.47,3.06 -19.78,4.76zm45.5 -37.34c3.81,20.4 8.65,39.44 10.56,58.79 1.53,15.56 -6.57,25.23 -20.51,30.45 -14.57,5.45 -26.28,2.64 -36.97,-8.89 -1.04,-1.12 -2,-2.3 -2.71,-3.13 -12.35,11.37 -24.51,22.56 -37.75,34.75 -2.16,-9.46 -4.32,-17.33 -5.54,-25.33 -0.34,-2.24 1.55,-5.47 3.38,-7.26 7.3,-7.09 15.06,-13.71 22.5,-20.68 5.13,-4.82 6.61,-10.22 1.29,-16.39 -11.29,2.57 -22.66,5.13 -34.61,7.83 -2.04,-8.16 -3.87,-15.52 -6.04,-24.24 34.83,-8.47 69.15,-16.83 106.41,-25.89z"/>
   <path class="fil0" d="M704.9 1549.15c15.58,3.83 29.58,5.17 40.01,-7.06 9.34,-10.94 10.63,-24.32 4.85,-37.25 -6.39,-14.29 -19.78,-17.82 -34.3,-19.32 -3.56,21.44 -7,42.2 -10.57,63.63zm-28.16 17.5c6.15,-36.52 12.05,-71.54 18.27,-108.49 18.32,4.76 36.6,7.4 53.06,14.29 26.06,10.9 36.15,38.03 27.25,65.74 -7.98,24.87 -33.16,39.78 -59.99,35.37 -12.66,-2.07 -25.27,-4.51 -38.59,-6.91z"/>
   <path class="fil0" d="M508.71 1387.28c-6.79,12.67 -13.01,24.31 -19.76,36.91 11.74,6.06 23.14,11.94 35.74,18.44 6.57,-12.37 13.02,-24.45 19.8,-37.22 7.27,3.63 14.28,7.14 22.07,11.04 -17.33,33 -34.44,65.57 -51.88,98.79 -7.57,-4.28 -14.45,-8.18 -21.94,-12.42 7.13,-13.71 13.91,-26.74 21.3,-40.93 -10.76,-5.64 -21.2,-11.39 -31.96,-16.43 -1.25,-0.58 -5.19,2.16 -6.41,4.22 -6.46,10.82 -12.44,21.91 -19.15,33.94 -6.92,-4.13 -13.65,-8.17 -21.22,-12.7 17.44,-32.02 34.6,-63.51 52.26,-95.93 7.26,4.21 13.78,8.02 21.15,12.3z"/>
   <path class="fil0" d="M626.76 183.48c8.12,-2.55 16.37,-5.14 25.65,-8.04 -8.35,-12.03 -15.82,-22.78 -23.3,-33.56 -0.78,0.28 -1.57,0.56 -2.35,0.83l0 40.77zm-27.06 50.84c0.59,-10.13 1.13,-20.18 1.78,-30.23 1.77,-27.27 3.46,-54.57 5.63,-81.81 0.2,-2.56 2.87,-6.17 5.27,-7.14 20.46,-8.22 20.64,-8.16 33.19,9.52 16.58,23.35 32.97,46.84 49.38,70.3 2.59,3.72 4.91,7.63 7.91,12.3 -9.2,2.6 -17.44,4.93 -25.48,7.2 -0.74,-0.53 -1.39,-0.77 -1.7,-1.24 -12.23,-18.07 -12.22,-18.06 -32.85,-11.72 -5.3,1.63 -10.63,3.11 -15.76,4.59 -0.39,0.85 -0.86,1.4 -0.85,1.94 0.61,23.4 0.62,23.4 -26.52,26.29z"/>
   <path class="fil0" d="M1029.67 180.71c-0.67,-15.06 -1.26,-28.23 -1.96,-43.53 -8.91,12.72 -16.37,23.35 -24.36,34.77 9.03,3 16.8,5.59 26.32,8.76zm24.87 50.93c-4.56,-1.01 -7.56,-1.59 -10.52,-2.34 -15.13,-3.92 -15.35,-3.93 -16.09,-19.57 -0.24,-5.07 -1.62,-7.55 -6.96,-8.78 -7.8,-1.79 -15.44,-4.5 -22.93,-7.38 -4.56,-1.75 -7.06,-1.27 -9.75,3.18 -9.57,15.8 -9.76,15.71 -27.61,10.41 -2.01,-0.61 -3.9,-1.65 -6.73,-2.87 1.83,-2.96 3.28,-5.59 4.98,-8.04 19.09,-27.3 38.4,-54.44 57.22,-81.92 4.14,-6.03 7.61,-7.19 15.02,-5.22 13.04,3.46 20.09,8.29 19.72,23.78 -0.61,26.11 1.65,52.3 2.7,78.46 0.27,6.38 0.59,12.77 0.95,20.3z"/>
   <path class="fil0" d="M362.32 1271.17c-15.49,16.4 -30.45,32.36 -45.55,48.21 -10.46,11 -10.14,21.79 0.94,30.9 6.69,5.49 13.62,6.02 20.23,0.58 5.45,-4.49 10.08,-9.93 15.26,-14.73 12.44,-11.52 24.99,-22.92 38.57,-35.35 3.9,3.23 9.89,8.19 16.82,13.93 -19.02,19.53 -36.86,38.65 -55.65,56.81 -10.27,9.92 -23.12,10.82 -36.23,4.83 -12.53,-5.74 -22.61,-14.44 -28.36,-26.8 -6.94,-14.91 -5.44,-29.78 5.73,-42.23 16.45,-18.33 33.65,-36.01 51.29,-54.78 7.92,8.71 13.23,14.54 16.96,18.63z"/>
   <path class="fil0" d="M638.24 1474.17c-0.6,-0.21 -1.22,-0.44 -1.83,-0.65 -7,10.11 -14.02,20.23 -21.56,31.1 8.72,3.08 15.97,5.63 23.39,8.24l0 -38.7zm-72.07 58.92c21.29,-29.41 41.96,-57.76 62.34,-86.3 3.06,-4.27 5.88,-5.52 10.74,-3.44 6.22,2.65 12.67,4.81 20.3,7.65 1.39,36.64 2.81,73.73 4.28,112.11 -8.02,-1.52 -15.53,-2.49 -22.69,-4.61 -1.81,-0.54 -3.78,-4.99 -3.46,-7.34 1.69,-12.35 -3.68,-18.47 -15.65,-20.78 -5.93,-1.14 -11.51,-4.16 -18.01,-6.61 -3.73,5.94 -7.43,11.85 -11.74,18.71 -8.19,-2.95 -16.72,-6.02 -26.1,-9.4z"/>
   <path class="fil0" d="M905.42 1497.27c-3.34,15.24 -6.07,27.79 -8.99,41.15 9.04,-1.19 16.4,-2.14 24.67,-3.22 -5.32,-12.9 -9.99,-24.15 -15.68,-37.93zm57.67 75.68c-4.81,0.63 -8.42,0.98 -11.96,1.58 -13.82,2.38 -14.1,2.51 -18.99,-10.67 -2.09,-5.66 -5.05,-7.53 -10.97,-6.65 -7.63,1.15 -15.49,1.03 -23.04,2.5 -2.53,0.5 -5.2,3.86 -6.43,6.54 -1.49,3.24 -0.93,7.4 -2.37,10.69 -1.01,2.3 -3.72,5.2 -5.9,5.42 -6.98,0.69 -14.09,0.25 -22.15,0.25 7.22,-27.42 14.35,-54.41 21.41,-81.41 1.87,-7.13 3.79,-14.28 5.2,-21.5 1.09,-5.62 3.77,-8.32 9.72,-9.06 18.82,-2.33 18.73,-2.5 26.57,15.03 11.42,25.55 22.94,51.03 34.39,76.57 1.46,3.25 2.77,6.57 4.5,10.7z"/>
   <path class="fil0" d="M925.32 111.3c-17.11,-1.19 -32.38,-2.26 -48.07,-3.36 0.68,-7.92 1.28,-14.83 1.97,-22.78 26.26,3.22 52.15,6.39 78.37,9.59 2.16,10.89 0.7,19.72 -7.51,27.95 -16.11,16.15 -31.29,33.2 -46.82,49.9 -1.19,1.27 -2.11,2.76 -3.83,5.05 17.53,2.15 33.94,4.15 51.54,6.31 -1.3,7.09 -2.54,13.81 -3.81,20.72 -27.26,-3.08 -53.86,-6.07 -80.89,-9.12 -2.02,-9.95 -0.85,-18.45 7.06,-26.53 15.94,-16.31 30.88,-33.58 46.21,-50.48 1.62,-1.77 3.01,-3.74 5.79,-7.25z"/>
   <path class="fil0" d="M1148.64 1436.55c-5.91,2.61 -11.75,5.41 -17.78,7.7 -1.67,0.64 -4.61,0.52 -5.8,-0.55 -8.88,-7.92 -18.13,-8.5 -28.1,-2.36 -10.26,6.33 -13.07,16 -11.73,27.11 1.49,12.31 6.41,23.16 16.39,31.04 13.26,10.47 34.82,4.24 38.15,-11.5 1.53,-7.2 4.05,-10.69 11.55,-10.94 4.21,-0.14 8.37,-1.65 13.31,-2.7 1.53,12.02 -0.49,22.85 -7.47,32.43 -17.2,23.57 -53.57,27.66 -75.51,8.65 -23.34,-20.2 -29.43,-53.36 -14.26,-77.66 13.39,-21.48 48.83,-29.28 70.01,-15.47 4.92,3.2 9.94,6.23 14.91,9.35 -1.21,1.63 -2.44,3.28 -3.65,4.91z"/>
   <path class="fil0" d="M1193.88 1441.77c4.02,6.96 7.66,13.3 12,20.81 13.01,-8.41 25.57,-16.54 38.78,-25.09 4.02,5.97 7.89,11.71 12.41,18.41 -20.94,12.8 -41.15,25.13 -62.22,38 -18.22,-31.45 -36.29,-62.67 -54.73,-94.49 20.05,-12.19 39.22,-23.86 59.32,-36.09 3.89,6.12 7.57,11.89 11.5,18.06 -12.86,7.74 -25.19,15.14 -38.32,23.04 3.74,6.37 7.11,12.1 11,18.74 10.95,-6.21 21.26,-12.05 32.37,-18.33 3.61,5.65 6.84,10.73 10.55,16.52 -11.06,6.91 -21.61,13.51 -32.67,20.43z"/>
   <path class="fil0" d="M1306.55 1269.79c15.05,-17.24 29.39,-33.68 44.43,-50.92 5.89,4.64 11.53,9.05 17.65,13.86 -10.51,12.04 -20.17,23.13 -30.56,35.02 5.27,4.45 10.32,8.71 15.92,13.44 7.99,-9.02 15.69,-17.7 24.01,-27.09 5.56,4.69 10.62,8.96 16.1,13.58 -8.42,9.81 -16.38,19.09 -24.72,28.83 5.36,4.65 10.39,9.01 16.07,13.94 11.28,-12.86 22.19,-25.29 33.56,-38.23 5.91,4.52 11.39,8.75 17.57,13.5 -16.74,19.11 -32.9,37.56 -49.75,56.8 -26.91,-24.37 -53.09,-48.09 -80.3,-72.72z"/>
   <path class="fil0" d="M873.58 1475.04c-10.23,30.91 -20.18,60.93 -30.09,90.93 -5.77,17.47 -5.74,17.47 -24.17,17.26 -3.4,-0.04 -6.79,0 -11.28,0 -10.17,-36.65 -20.31,-73.18 -30.82,-111.04 8.72,0.53 15.9,0.33 22.73,1.74 2.41,0.49 5.02,4.67 5.81,7.61 5.52,20.76 10.58,41.63 15.84,62.46 0.48,1.94 1.24,3.8 2.58,7.79 5.09,-16.24 9.58,-30.51 14.07,-44.8 1.48,-4.69 3,-9.37 4.48,-14.07 6.6,-20.86 6.6,-20.86 30.84,-17.87z"/>
   <path class="fil0" d="M1474.1 480.72c-8.7,-13.06 -17.19,-25.79 -26.37,-39.55 -6,4.01 -11.68,7.81 -17.88,11.94 6.84,11.3 13.19,21.75 19.91,32.85 -6.07,4.01 -11.86,7.82 -18.44,12.16 -6.87,-11.26 -13.21,-21.69 -20.22,-33.16 -12.23,8.44 -24.02,16.6 -36.66,25.32 -4.11,-6.17 -8.12,-12.18 -13.11,-19.66 29.89,-20.86 59.6,-41.57 90.2,-62.92 10.72,15.39 21.04,30.26 31.41,45.07 10.26,14.67 10.28,14.65 -4.4,24.98 -1.23,0.85 -2.48,1.65 -4.44,2.95z"/>
   <path class="fil0" d="M280.71 1163.46c-17.32,0 -33.03,0.87 -48.61,-0.25 -15.33,-1.09 -29.29,1.69 -42.83,8.45 -5.74,2.88 -11.93,4.89 -18.49,7.52 -4.33,-6.78 -8.39,-13.13 -13.06,-20.46 11.46,-5.25 22.23,-9.73 32.52,-15.11 4.34,-2.25 8.74,-5.74 11.28,-9.8 11.55,-18.44 22.43,-37.28 34.61,-57.73 4.8,9.44 8.84,16.85 12.22,24.54 0.67,1.53 -0.85,4.45 -2.05,6.27 -6.88,10.41 -13.96,20.69 -21.56,31.88 12.87,0.91 24.48,2.44 36.05,2.3 7.7,-0.09 12.07,2.16 14.29,9.45 1.19,3.93 3.28,7.62 5.63,12.93z"/>
   <path class="fil0" d="M1429.71 1134.19c-6.92,-2.99 -13.05,-5.65 -20.33,-8.79 11.52,-26.22 22.94,-52.21 34.7,-78.98 7.04,2.83 13.46,5.41 20.66,8.31 -4.52,10.22 -8.71,19.64 -13.37,30.17 26.61,11.28 52.93,22.44 80.24,34.02 -2.72,7.65 -5.32,15 -8.27,23.3 -27.3,-11.56 -53.87,-22.82 -81.2,-34.39 -4.17,8.85 -8.17,17.35 -12.42,26.37z"/>
   <path class="fil0" d="M227.83 389c6.56,3.61 12.46,6.84 19.16,10.53 -5.72,9.06 -11.04,17.52 -16.93,26.85 24.51,16.19 48.61,32.1 73.09,48.26 -5.14,6.81 -9.91,13.13 -15.04,19.92 -24.24,-16.04 -47.64,-31.51 -71.93,-47.56 -5.5,8.35 -10.81,16.43 -16.45,25 -6.63,-4.11 -12.84,-7.95 -19.83,-12.29 15.97,-23.57 31.63,-46.67 47.93,-70.72z"/>
   <path class="fil0" d="M389.3 1442.43c-6.53,-5.28 -12.69,-10.27 -19.35,-15.63 18.45,-24.09 36.52,-47.7 55.08,-71.96 -8.35,-6.57 -16.04,-12.64 -24.25,-19.11 4.05,-5.2 7.95,-10.2 12.3,-15.78 22.91,17.1 45.54,33.99 68.63,51.24 -3.76,5.44 -7.41,10.67 -11.69,16.84 -8.33,-5.8 -16.31,-11.39 -25.38,-17.7 -18.27,23.83 -36.55,47.61 -55.34,72.11z"/>
   <path class="fil0" d="M1081.32 148.41c3.22,-6.92 6.02,-12.92 9.23,-19.82 26.47,11.37 52.43,22.53 79.06,33.98 -3.24,7.03 -5.89,12.8 -8.99,19.5 -9.28,-3.92 -18.26,-7.72 -27.82,-11.75 -12.18,26.74 -24.23,53.2 -36.68,80.53 -7.72,-3.43 -14.62,-6.5 -22.41,-9.97 12.07,-26.65 23.91,-52.84 36.09,-79.76 -9.71,-4.34 -18.83,-8.41 -28.48,-12.72z"/>
   <path class="fil0" d="M84.4 789.11c0.96,-7.88 1.87,-15.35 2.95,-24.17 21.66,1.91 42.53,3.59 63.36,5.64 7.94,0.78 16.05,1.59 23.66,3.8 14.29,4.16 21.81,16.59 21.64,33.72 -0.19,17.97 -7.85,30.07 -22.41,34.22 -6.33,1.81 -13.01,2.43 -20.24,3.72l0 -21.78c3.92,-1.18 8.96,-1.3 11.74,-3.87 3.65,-3.37 7.26,-8.5 7.7,-13.16 0.57,-5.99 -4.4,-9.56 -10.85,-10.17 -23.98,-2.25 -47.93,-4.61 -71.89,-6.95 -1.77,-0.18 -3.53,-0.61 -5.65,-1.01z"/>
   <polygon class="fil0" points="826.08,84.68 850.88,84.68 850.88,195.37 826.08,195.37 "/>
   <path class="fil0" d="M1185.9 171.34c7.73,4.24 14.46,7.92 21.94,12.02 -18.01,32.13 -35.79,63.87 -53.98,96.35 -7.78,-4.24 -14.73,-8.04 -21.84,-11.93 17.89,-32.02 35.66,-63.82 53.88,-96.44z"/>
   <path class="fil0" d="M223.71 626.51c-2.49,7.6 -4.85,14.8 -7.65,23.35 -33.98,-11.6 -67.56,-23.07 -101.97,-34.84 2.91,-8.12 5.54,-15.46 8.45,-23.6 34.02,11.8 67.39,23.37 101.18,35.09z"/>
   <path class="fil0" d="M932.55 476.38c0.11,55.81 -43.68,101.34 -98.05,100.65 -58,-0.74 -99.13,-46.16 -99.2,-98.59 -0.08,-56.62 44.64,-102.96 99.95,-102.42 53.53,0.53 98.24,44.57 97.31,100.36z"/>
   <path class="fil0" d="M716.77 1241.61c2.82,9.25 4.43,18.81 8.54,27.15 12.31,25.01 45.32,28.47 63.47,7.22 14.89,-17.46 14.81,-51.36 -0.18,-68.79 -17.93,-20.87 -51.82,-17.19 -63.77,7.48 -3.94,8.11 -5.31,17.44 -8.06,26.94zm-30.42 1.56c0.07,-44.96 30.79,-77.04 73.56,-76.81 42.13,0.24 73.94,32.84 73.27,76.43 -0.69,45.85 -32.21,75.85 -76.24,74.39 -41.69,-1.37 -70.65,-30.57 -70.59,-74.02z"/>
   <path class="fil0" d="M1025.75 1203.15c-6.91,19.49 -12.96,36.61 -19.2,54.24l37.44 0c-5.92,-17.59 -11.66,-34.65 -18.24,-54.24zm70.54 111.78c-4.26,0 -7.65,0 -11.06,0 -22.76,0.05 -23.07,0.13 -29.33,-21.96 -1.71,-6.03 -4.24,-7.74 -10.17,-7.6 -15.78,0.35 -31.57,0.13 -47.76,0.13 -3.43,9.81 -6.76,19.34 -10.13,29l-32.32 0c4.49,-12.57 8.59,-24.35 12.9,-36.06 12.58,-34.03 25.4,-67.99 37.76,-102.11 2,-5.5 4.42,-7.91 10.48,-7.44 8.91,0.7 19.94,-2.42 26.23,1.77 5.84,3.89 6.69,15.23 9.66,23.31 13.87,37.81 27.72,75.63 41.55,113.45 0.81,2.21 1.33,4.51 2.19,7.49z"/>
   <path class="fil0" d="M917.71 1314.36l-32.02 0c0,-14.5 -0.56,-28.59 0.19,-42.61 0.58,-11.01 -2.76,-20.13 -8.44,-29.34 -14.7,-23.75 -28.7,-47.93 -43.81,-73.34 12.17,0 23.15,-0.39 34.07,0.29 2.4,0.15 5.3,3.65 6.74,6.27 9.38,17.17 18.43,34.52 28.01,52.61 9.78,-18.27 19.39,-35.71 28.41,-53.44 2.33,-4.59 4.91,-6.1 9.86,-5.9 9.24,0.39 18.5,0.11 29.4,0.11 -7.83,13.04 -15.01,25.05 -22.23,37.01 -8.6,14.24 -17.54,28.29 -25.68,42.76 -2.57,4.56 -4.12,10.24 -4.29,15.47 -0.55,16.51 -0.2,33.06 -0.2,50.1z"/>
   <path class="fil0" d="M629.75 1169.46l32.69 0c0,5.56 0,10.7 0,15.85 0.04,28.04 0.26,56.06 0.07,84.09 -0.2,30.64 -16.68,46.75 -47.39,46.84 -28.3,0.09 -48.6,-19.9 -48.8,-48.52 9.99,-1.02 20.04,-2.04 30.64,-3.11 0.64,3.9 1,7.49 1.81,10.98 2.49,10.76 8.39,14.82 19.51,13.65 8.6,-0.9 11.58,-5.06 11.58,-16.65 0,-31.1 -0.07,-62.22 -0.11,-93.32 0,-3.03 0,-6.04 0,-9.8z"/>
  </g>
 </g>
</svg>
